<svg width="70" height="20" fill="none" xmlns="http://www.w3.org/2000/svg"><path fill-rule="evenodd" clip-rule="evenodd" d="M17.397 16.061c-.196.722-.476 1.096-1.377 1.304-1.997.38-3.994.478-5.992.477-1.997 0-3.994-.097-5.99-.477-.902-.207-1.182-.582-1.378-1.304-.395-2.02-.496-4.04-.495-6.061-.001-2.02.1-4.04.495-6.061.196-.722.476-1.097 1.377-1.304 1.997-.38 3.994-.477 5.991-.477 1.998 0 3.995.097 5.992.477.902.207 1.18.583 1.377 1.304.395 2.02.496 4.04.496 6.061 0 2.02-.1 4.04-.496 6.061zm2.66-6.07a36.273 36.273 0 00-.579-6.43A3.699 3.699 0 0016.573.592 36.65 36.65 0 0010.043 0h-.029a36.642 36.642 0 00-6.53.593A3.699 3.699 0 00.579 3.56 36.261 36.261 0 000 9.991v.018a36.21 36.21 0 00.579 6.43 3.7 3.7 0 002.905 2.968c2.177.395 4.353.591 6.53.593h.029a36.636 36.636 0 006.53-.593 3.7 3.7 0 002.905-2.967 36.23 36.23 0 00.579-6.431v-.018z" fill="#373334"/><path fill-rule="evenodd" clip-rule="evenodd" d="M15.127 13.336l-3.315-3.328L13.3 8.516c.112-.081.211-.18.29-.292l1.24-1.244c.311-.298.559-.598.559-1.029 0-.678-.552-1.229-1.233-1.229-.388 0-.704.193-.964.433l-.008.012-1.569 1.575-.005-.006-1.53 1.534-1.527-1.534-.006.006L6.98 5.167l-.01-.007c-.305-.289-.576-.438-.964-.438a1.23 1.23 0 00-1.233 1.23c0 .43.272.72.56 1.028l1.238 1.244c.08.113.178.21.29.292l1.488 1.492-3.315 3.328-.002-.007c-.171.211-.26.5-.26.792 0 .679.552 1.229 1.234 1.229.435 0 .752-.245 1.036-.564l1.186-1.192c.156-.096.29-.224.388-.377l1.464-1.47 1.464 1.47c.099.153.232.28.387.377l1.187 1.192c.274.27.601.564 1.036.564.681 0 1.234-.55 1.234-1.229 0-.293-.084-.57-.255-.782l-.007-.003zm53.851 1.287a1.148 1.148 0 00-.07-.29.372.372 0 00-.116-.163.253.253 0 00-.153-.05h-5.113v-3.378h4.417a.27.27 0 00.153-.046.338.338 0 00.116-.152c.031-.072.054-.165.07-.283.015-.117.023-.265.023-.444 0-.173-.008-.319-.023-.44a1.077 1.077 0 00-.07-.286.375.375 0 00-.116-.158.253.253 0 00-.153-.05h-4.417V5.959h5.076a.236.236 0 00.149-.05.397.397 0 00.11-.163c.032-.074.055-.17.07-.291a3.51 3.51 0 00.024-.44c0-.184-.008-.337-.023-.457a1.22 1.22 0 00-.07-.297.356.356 0 00-.111-.161.25.25 0 00-.149-.047h-6.784a.761.761 0 00-.515.18c-.14.121-.21.317-.21.588v10.436c0 .272.07.468.21.588.139.12.31.18.515.18h6.821a.252.252 0 00.153-.05.369.369 0 00.116-.163c.031-.073.055-.17.07-.291.016-.12.023-.27.023-.449a3.57 3.57 0 00-.023-.448zM57.14 4.979a1.937 1.937 0 00-.429-.297 4.267 4.267 0 00-.771-.319 7.784 7.784 0 00-1.087-.251 8.468 8.468 0 00-1.38-.104c-.92 0-1.754.141-2.502.423a5.302 5.302 0 00-1.916 1.217 5.43 5.43 0 00-1.227 1.933c-.289.758-.433 1.613-.433 2.566 0 .923.135 1.748.406 2.476a5.034 5.034 0 001.172 1.852 5.063 5.063 0 001.871 1.16c.737.266 1.571.4 2.503.4a10.056 10.056 0 002.787-.396 8.25 8.25 0 00.726-.243c.195-.078.324-.184.388-.319.063-.135.095-.292.095-.472V9.818c0-.12-.016-.226-.046-.319a.67.67 0 00-.13-.238.56.56 0 00-.456-.198h-3.94a.228.228 0 00-.145.05.386.386 0 00-.109.153c-.03.068-.052.16-.067.274a3.326 3.326 0 00-.023.422c0 .324.03.553.09.688.06.134.144.202.253.202h2.21v2.853a2.89 2.89 0 01-.722.27c-.259.06-.52.09-.785.09-.54 0-1.035-.087-1.483-.261a3.072 3.072 0 01-1.15-.773 3.556 3.556 0 01-.744-1.272c-.177-.506-.266-1.092-.266-1.757 0-.605.087-1.158.26-1.658.176-.5.425-.929.75-1.286a3.334 3.334 0 011.172-.826 3.874 3.874 0 011.534-.293c.528 0 .993.054 1.393.162.4.108.744.225 1.032.35.289.127.52.243.695.351.174.108.3.162.379.162.054 0 .1-.015.14-.045a.336.336 0 00.099-.157c.027-.075.048-.175.063-.301s.022-.276.022-.45c0-.3-.018-.526-.054-.678a.741.741 0 00-.175-.355zm-19.333 6.448l1.686-5.05h.01l1.686 5.05h-3.382zm3.483-6.869a.887.887 0 00-.134-.275.477.477 0 00-.257-.152 2.321 2.321 0 00-.503-.064c-.215-.01-.504-.014-.866-.014-.313 0-.565.005-.755.014-.19.01-.34.03-.447.064a.459.459 0 00-.235.147.911.911 0 00-.13.253l-3.676 10.542a3.02 3.02 0 00-.138.514c-.018.129.003.229.064.299.062.07.172.114.332.133.16.018.381.027.664.027.263 0 .477-.006.64-.018a1.39 1.39 0 00.378-.069.394.394 0 00.193-.138.719.719 0 00.097-.216l.756-2.323h4.478l.801 2.388c.025.08.056.144.093.193a.366.366 0 00.193.114c.092.028.226.046.401.055a14.68 14.68 0 001.442-.009c.172-.015.291-.055.36-.119.067-.064.092-.16.073-.29a3.185 3.185 0 00-.138-.523L41.29 4.557zM30.077 8.721a1.898 1.898 0 01-.38.675 1.673 1.673 0 01-.645.44c-.264.105-.59.157-.98.157h-1.647V5.93h1.59c.255 0 .5.017.739.051.238.034.465.116.682.245.217.13.4.33.548.602.149.271.223.617.223 1.036a2.7 2.7 0 01-.13.856zm1.885-3.377a3.241 3.241 0 00-.943-.726 4.102 4.102 0 00-1.09-.394 8.663 8.663 0 00-.924-.138 9.724 9.724 0 00-.812-.033H24.81c-.247 0-.447.073-.598.218-.152.144-.228.362-.228.652v10.77a.27.27 0 00.056.166c.037.049.102.09.195.12.093.03.218.055.376.074.157.018.354.028.589.028.241 0 .44-.01.595-.028.154-.019.278-.043.37-.074a.42.42 0 00.2-.12.26.26 0 00.06-.167v-3.82h1.554c.792 0 1.48-.094 2.066-.278.584-.186 1.078-.455 1.48-.81.403-.355.71-.791.92-1.31.21-.517.315-1.113.315-1.785a4 4 0 00-.204-1.318 3.033 3.033 0 00-.594-1.027z" fill="#373334"/></svg>