<svg width="20" height="20" fill="none" xmlns="http://www.w3.org/2000/svg"><g clip-path="url(#clip0)" fill="#373334"><path d="M0 19.633h20V6.23H0v13.404zm14.828-11.45h2.07v2.07h-2.07v-2.07zm0 3.518h2.07v2.07h-2.07V11.7zm0 3.518h2.07v2.069h-2.07v-2.069zM10.92 8.184h2.069v2.069h-2.07v-2.07zm0 3.517h2.069v2.07h-2.07V11.7zm0 3.518h2.069v2.069h-2.07v-2.069zM7.01 8.184h2.07v2.069H7.01v-2.07zm0 3.517h2.07v2.07H7.01V11.7zm0 3.518h2.07v2.069H7.01v-2.069zM3.103 8.184h2.069v2.069h-2.07v-2.07zm0 3.517h2.069v2.07h-2.07V11.7zm2.069 3.518v2.069h-2.07v-2.069h2.07zM20 1.54h-3.518v2.345H15.31V1.54H4.69v2.345H3.518V1.54H0v3.517h20V1.54zM4.69.367H3.518v1.172H4.69V.367zm11.792 0H15.31v1.172h1.172V.367z"/></g><defs><clipPath id="clip0"><path fill="#fff" d="M0 0h20v20H0z"/></clipPath></defs></svg>