<svg width="18" height="18" fill="none" xmlns="http://www.w3.org/2000/svg"><g clip-path="url(#clip0)"><path d="M13.21 11.618a7.264 7.264 0 001.415-4.306C14.625 3.281 11.345 0 7.312 0 3.28 0 0 3.28 0 7.312s3.28 7.313 7.312 7.313c1.611 0 3.097-.53 4.307-1.416l4.79 4.79L18 16.41l-4.79-4.79zm-5.898.757A5.068 5.068 0 012.25 7.312 5.068 5.068 0 017.312 2.25a5.068 5.068 0 015.063 5.062 5.068 5.068 0 01-5.063 5.063z" fill="#373334"/></g><defs><clipPath id="clip0"><path fill="#fff" d="M0 0h18v18H0z"/></clipPath></defs></svg>