<svg width="19" height="18" fill="none" xmlns="http://www.w3.org/2000/svg"><path d="M10.696 6.79c0 .455-.018.884-.02 1.308-.007.231.02.462.08.686a.69.69 0 00.232.364.226.226 0 00.202.039.855.855 0 00.328-.194 4.4 4.4 0 00.605-.683 12.922 12.922 0 001.542-2.801c.07-.167.139-.332.205-.503a.56.56 0 01.262-.303.645.645 0 01.24-.04h3.268c.09.012.178.036.262.071a.318.318 0 01.229.317c0 .18-.036.358-.105.523a6.32 6.32 0 01-.662 1.207c-.492.749-1.051 1.448-1.577 2.163-.176.238-.341.484-.499.733a.719.719 0 00-.12.468c.022.16.096.31.21.424.191.204.386.406.59.597a16.284 16.284 0 011.543 1.57c.223.265.415.554.573.862a.952.952 0 01.078.262.475.475 0 01-.228.523c-.176.11-.378.172-.586.176-.775.02-1.55.015-2.322.06a1.946 1.946 0 01-1.361-.466 6.318 6.318 0 01-.788-.77c-.263-.285-.507-.573-.789-.845a1.787 1.787 0 00-.401-.296.466.466 0 00-.597.094c-.13.156-.22.341-.265.54a3.818 3.818 0 00-.14.926 2.33 2.33 0 01-.023.233.536.536 0 01-.368.432c-.127.053-.264.08-.402.081h-1.05a5.147 5.147 0 01-1.79-.343 6.874 6.874 0 01-2.69-1.832 16.757 16.757 0 01-1.944-2.597A36.726 36.726 0 01.054 5.292a.64.64 0 01-.05-.325.227.227 0 01.134-.194.93.93 0 01.417-.099h2.612a.803.803 0 01.699.524c.225.594.497 1.17.811 1.722.341.615.725 1.205 1.148 1.767.144.208.322.39.526.54a.424.424 0 00.473.046.44.44 0 00.181-.209c.095-.218.154-.451.173-.688.058-.554.07-1.11.035-1.665a5.904 5.904 0 00-.103-.987c-.016-.081-.045-.16-.06-.241a.536.536 0 00-.284-.35 1.34 1.34 0 00-.596-.197c-.06 0-.082-.032-.056-.084a.575.575 0 01.09-.144c.192-.208.451-.343.733-.38.407-.07.82-.1 1.234-.091.46 0 .923 0 1.385.029.2.012.4.045.594.096a.7.7 0 01.562.66c.022.253.03.506.024.76-.006.342-.027.688-.04 1.007z" fill="#373334"/></svg>