<svg width="16" height="17" fill="none" xmlns="http://www.w3.org/2000/svg"><mask id="a" fill="#fff"><path d="M11.607 16.558c.784.21 1.59.148 2.27-.174 1.405-.664 1.828-2.244.944-3.521L7.812 2.733c-.564-.816-1.446-1.418-2.48-1.695C4.298.76 3.234.84 2.336 1.266 1.438 1.691.815 2.408.58 3.286c-.235.877-.053 1.81.512 2.626l5.518 7.973a.64.64 0 00.776.208.432.432 0 00.176-.658L2.043 5.462c-.405-.585-.535-1.254-.366-1.882.168-.629.616-1.143 1.259-1.447.643-.305 1.406-.363 2.147-.164.74.198 1.372.63 1.777 1.215l7.009 10.13c.553.8.288 1.788-.59 2.204-.853.402-2.062.078-2.599-.696L5.974 8.02a.732.732 0 01-.118-.603.722.722 0 01.404-.464 1.04 1.04 0 011.257.337l3.214 4.645a.64.64 0 00.776.208.432.432 0 00.176-.658L8.47 6.839c-.598-.864-1.858-1.201-2.809-.752-.46.218-.78.586-.901 1.036-.12.443-.024.935.262 1.347l4.707 6.802c.428.619 1.095 1.076 1.88 1.286z"/></mask><path d="M11.607 16.558c.784.21 1.59.148 2.27-.174 1.405-.664 1.828-2.244.944-3.521L7.812 2.733c-.564-.816-1.446-1.418-2.48-1.695C4.298.76 3.234.84 2.336 1.266 1.438 1.691.815 2.408.58 3.286c-.235.877-.053 1.81.512 2.626l5.518 7.973a.64.64 0 00.776.208.432.432 0 00.176-.658L2.043 5.462c-.405-.585-.535-1.254-.366-1.882.168-.629.616-1.143 1.259-1.447.643-.305 1.406-.363 2.147-.164.74.198 1.372.63 1.777 1.215l7.009 10.13c.553.8.288 1.788-.59 2.204-.853.402-2.062.078-2.599-.696L5.974 8.02a.732.732 0 01-.118-.603.722.722 0 01.404-.464 1.04 1.04 0 011.257.337l3.214 4.645a.64.64 0 00.776.208.432.432 0 00.176-.658L8.47 6.839c-.598-.864-1.858-1.201-2.809-.752-.46.218-.78.586-.901 1.036-.12.443-.024.935.262 1.347l4.707 6.802c.428.619 1.095 1.076 1.88 1.286z" fill="#fff" stroke="#fff" stroke-width="2" mask="url(#a)"/></svg>