<svg width="16" height="16" fill="none" xmlns="http://www.w3.org/2000/svg"><g clip-path="url(#clip0)"><circle cx="8" cy="8" r="8" fill="#373334"/><path d="M9.77 12.66l-.46.13a4.887 4.887 0 01-2.889.352.823.823 0 01-.477-.237.876.876 0 01-.175-.788.8.8 0 01.854-.628c.255 0 .499.042.754.04a4.42 4.42 0 001.601-.388A4.611 4.611 0 0010.9 9.642c.162-.235.303-.484.422-.744.104-.236.278-.435.5-.568a.8.8 0 01.877.066.772.772 0 01.272 1.061 4.53 4.53 0 01-.726 1.334 6.663 6.663 0 01-1.062 1.028l-.274.158.14.053 3.342.898a.792.792 0 01.629.71.897.897 0 01-.42.875.726.726 0 01-.572.063l-2.404-.623-.266-.102c-.078-.029-.114-.008-.137.079l-.358 1.34c-.123.46-.237.917-.412 1.395a.758.758 0 01-.912.527.908.908 0 01-.51-.291.74.74 0 01-.158-.676l.481-1.802.397-1.63.02-.134z" fill="#F2F2F2"/><path d="M5.527 4.005a3.443 3.443 0 013.832.248 3.456 3.456 0 011.23 3.642 3.445 3.445 0 01-6.328.79 3.443 3.443 0 01-.331-2.602 3.433 3.433 0 011.597-2.078zm.236 3.825a1.712 1.712 0 001.69.862 1.705 1.705 0 001.425-2.22 1.712 1.712 0 00-2.453-.974 1.705 1.705 0 00-.662 2.332z" fill="#F2F2F2"/></g><defs><clipPath id="clip0"><path fill="#fff" d="M0 0h16v16H0z"/></clipPath></defs></svg>