<svg width="15" height="15" fill="none" xmlns="http://www.w3.org/2000/svg"><path d="M15 7.5v3.249a4.202 4.202 0 01-2.724 3.896 5.62 5.62 0 01-2.115.353H4.524a4.495 4.495 0 01-2.564-.733 4.152 4.152 0 01-1.843-2.523A4.405 4.405 0 010 10.764V4.35c0-1.101.308-2.09 1.092-2.888A4.495 4.495 0 013.924.046C4.598-.014 5.273.003 5.934 0h4.306c.973 0 1.908.157 2.74.696a4.166 4.166 0 011.88 2.472c.087.353.131.715.133 1.079.016 1.083 0 2.166 0 3.25l.007.001zm-13.876 0v3.28c0 1.27.674 2.13 1.753 2.72a3.482 3.482 0 001.694.37h5.806a3.738 3.738 0 001.919-.492c1.016-.589 1.573-1.456 1.573-2.636a460.4 460.4 0 000-6.575c0-1.297-.735-2.153-1.843-2.721a3.425 3.425 0 00-1.598-.328H4.655a3.779 3.779 0 00-1.78.393c-1.077.56-1.727 1.431-1.751 2.678-.027 1.104 0 2.207 0 3.31z" fill="#373334"/><path d="M1.124 7.5v3.28c0 1.27.674 2.13 1.753 2.72a3.482 3.482 0 001.694.37h5.806a3.738 3.738 0 001.919-.492c1.016-.589 1.573-1.456 1.573-2.636a460.4 460.4 0 000-6.575c0-1.297-.735-2.153-1.843-2.721a3.425 3.425 0 00-1.598-.328H4.655a3.779 3.779 0 00-1.78.393c-1.077.56-1.727 1.431-1.751 2.678-.027 1.104 0 2.207 0 3.31z" fill="#373334"/><path d="M7.506 10.704a3.477 3.477 0 113.529-3.47 3.51 3.51 0 01-3.529 3.47zM5.108 7.227a2.404 2.404 0 102.405-2.36 2.396 2.396 0 00-2.405 2.36zm7.076-3.768a.74.74 0 11-.735-.766.764.764 0 01.735.766z" fill="#fff"/></svg>