<svg width="24" height="23" fill="none" xmlns="http://www.w3.org/2000/svg"><path d="M23.823 11.5v4.981a6.442 6.442 0 01-4.177 5.975 8.616 8.616 0 01-3.242.54H7.76a6.893 6.893 0 01-3.932-1.122 6.367 6.367 0 01-2.826-3.87 6.752 6.752 0 01-.18-1.498V6.668c0-1.688.473-3.204 1.675-4.427A6.893 6.893 0 016.84.07C7.874-.024 8.908.004 9.921 0h6.603c1.492 0 2.926.241 4.201 1.068a6.388 6.388 0 012.884 3.79c.132.542.2 1.097.204 1.654.024 1.661 0 3.322 0 4.983l.01.003zm-21.276 0v5.03c0 1.946 1.033 3.266 2.688 4.169a5.34 5.34 0 002.598.568h8.901a5.732 5.732 0 002.943-.754c1.558-.903 2.413-2.233 2.413-4.042.02-3.36.027-6.719 0-10.082 0-1.988-1.127-3.3-2.826-4.172a5.252 5.252 0 00-2.45-.503H7.96a5.794 5.794 0 00-2.729.603c-1.65.858-2.647 2.195-2.684 4.107-.042 1.692 0 3.383 0 5.075z" fill="#373334"/><path d="M2.547 11.5v5.03c0 1.946 1.033 3.266 2.688 4.169a5.34 5.34 0 002.598.568h8.901a5.732 5.732 0 002.943-.754c1.558-.903 2.413-2.233 2.413-4.042.02-3.36.027-6.719 0-10.082 0-1.988-1.127-3.3-2.826-4.172a5.252 5.252 0 00-2.45-.503H7.96a5.794 5.794 0 00-2.729.603c-1.65.858-2.647 2.195-2.684 4.107-.042 1.692 0 3.383 0 5.075z" fill="#373334"/><path d="M12.334 16.412a5.331 5.331 0 115.41-5.32 5.381 5.381 0 01-5.41 5.32zm-3.678-5.33a3.686 3.686 0 103.688-3.618 3.674 3.674 0 00-3.688 3.618zm10.849-5.778a1.134 1.134 0 11-1.127-1.175 1.172 1.172 0 011.127 1.175z" fill="#fff"/></svg>