<svg width="29" height="28" fill="none" xmlns="http://www.w3.org/2000/svg"><path d="M17.09 10.56c0 .71-.028 1.377-.032 2.037-.008.36.033.719.123 1.067.055.222.177.42.35.566a.337.337 0 00.305.06 1.28 1.28 0 00.496-.3c.339-.321.645-.678.912-1.063a20.29 20.29 0 002.328-4.357c.107-.261.21-.518.31-.782a.865.865 0 01.396-.473.949.949 0 01.361-.06h4.934c.137.017.27.054.397.11a.48.48 0 01.255.185.493.493 0 01.09.307c0 .28-.054.556-.159.814a9.955 9.955 0 01-.999 1.878c-.742 1.164-1.587 2.252-2.38 3.363-.266.37-.515.753-.754 1.14a1.15 1.15 0 00-.182.73c.034.248.145.48.317.659.29.318.583.631.893.928a24.9 24.9 0 012.328 2.444c.336.411.627.86.865 1.34.058.129.098.266.119.407a.76.76 0 01-.04.466.735.735 0 01-.305.348 1.689 1.689 0 01-.885.273c-1.17.032-2.34.024-3.506.094a2.884 2.884 0 01-2.055-.725 9.689 9.689 0 01-1.19-1.197c-.396-.444-.765-.892-1.19-1.316a2.708 2.708 0 00-.607-.46.687.687 0 00-.9.147c-.196.243-.334.53-.4.838a6.06 6.06 0 00-.21 1.442 3.729 3.729 0 01-.036.362.845.845 0 01-.185.418.812.812 0 01-.37.254 1.55 1.55 0 01-.608.127H14.29a7.57 7.57 0 01-2.701-.534 10.371 10.371 0 01-4.062-2.85 26.023 26.023 0 01-2.935-4.04 57.744 57.744 0 01-3.57-6.975 1.022 1.022 0 01-.075-.505.36.36 0 01.202-.302c.196-.101.412-.154.63-.154h3.943c.234.016.458.102.646.246.187.145.33.342.41.568.34.924.75 1.82 1.225 2.68a23.49 23.49 0 001.733 2.748c.217.323.485.607.794.839a.63.63 0 00.714.073.68.68 0 00.273-.325 3.44 3.44 0 00.262-1.071c.087-.86.104-1.727.052-2.59a9.444 9.444 0 00-.155-1.535c-.024-.127-.068-.249-.091-.375a.843.843 0 00-.429-.546 1.983 1.983 0 00-.9-.305c-.091 0-.123-.049-.083-.13a.9.9 0 01.134-.224 1.81 1.81 0 011.107-.59 9.54 9.54 0 011.864-.143c.694 0 1.393 0 2.09.044.304.02.604.07.897.151.234.048.445.175.599.361a1.1 1.1 0 01.25.665c.034.393.046.787.036 1.181-.008.534-.04 1.071-.06 1.568z" fill="#373334"/></svg>