<svg width="24" height="18" fill="none" xmlns="http://www.w3.org/2000/svg"><path d="M22.83 4.165s-.226-1.647-.92-2.37C21.032.844 20.05.84 19.6.783 16.375.54 11.534.54 11.534.54h-.01s-4.84 0-8.065.243c-.45.056-1.432.06-2.31 1.012-.694.723-.915 2.37-.915 2.37S0 6.1 0 8.032v1.81c0 1.93.23 3.866.23 3.866s.225 1.647.914 2.37c.878.951 2.031.919 2.545 1.021 1.846.182 7.84.238 7.84.238s4.846-.009 8.071-.247c.45-.056 1.432-.06 2.31-1.012.694-.723.92-2.37.92-2.37s.229-1.93.229-3.867v-1.81c0-1.93-.23-3.866-.23-3.866zM9.146 12.039V5.326l6.229 3.368-6.229 3.345z" fill="#373334"/></svg>