<svg width="25" height="24" fill="none" xmlns="http://www.w3.org/2000/svg"><g clip-path="url(#clip0)"><ellipse cx="12.471" cy="11.941" rx="12.353" ry="11.941" fill="#373334"/><path d="M15.201 18.885l-.707.191c-1.39.6-2.943.773-4.45.494a1.306 1.306 0 01-.74-.359 1.32 1.32 0 01-.287-.56 1.273 1.273 0 01.008-.622c.062-.285.23-.537.47-.708a1.25 1.25 0 01.841-.222c.394.002.77.068 1.163.069a6.924 6.924 0 002.465-.564 6.94 6.94 0 002.946-2.223 7.15 7.15 0 00.643-1.108c.158-.353.425-.648.764-.846a1.276 1.276 0 011.355.108c.136.079.255.182.35.304a1.124 1.124 0 01.08 1.288A6.598 6.598 0 0119 16.118a9.813 9.813 0 01-1.627 1.525l-.42.234.217.081 5.164 1.38c.258.054.493.188.67.38.176.193.284.435.308.69.035.256-.006.515-.12.747a1.325 1.325 0 01-.517.559 1.13 1.13 0 01-.882.087l-3.715-.959-.411-.156c-.12-.043-.176-.012-.21.117l-.538 2.002c-.184.689-.355 1.37-.618 2.084a1.117 1.117 0 01-.535.667 1.194 1.194 0 01-.867.112 1.437 1.437 0 01-.788-.442 1.117 1.117 0 01-.256-.478 1.074 1.074 0 01.003-.535l.722-2.69.594-2.438.03-.2z" fill="#fff"/><path d="M8.624 5.951a5.386 5.386 0 013.004-.665 5.49 5.49 0 012.904 1.078 5.284 5.284 0 011.82 2.456c.344.972.386 2.018.118 3.003a5.035 5.035 0 01-1.622 2.531 5.298 5.298 0 01-2.814 1.204 5.492 5.492 0 01-3.051-.534 5.373 5.373 0 01-2.257-2.088 5.044 5.044 0 01-.54-3.896 5.055 5.055 0 012.438-3.089zm.408 5.722a2.66 2.66 0 001.109 1.036c.465.232.988.327 1.504.272a2.62 2.62 0 001.394-.582 2.49 2.49 0 00.815-1.24c.138-.485.125-1-.038-1.482a2.614 2.614 0 00-.878-1.226 2.719 2.719 0 00-1.424-.557 2.673 2.673 0 00-1.49.299c-.302.16-.567.378-.781.64a2.482 2.482 0 00-.211 2.84z" fill="#fff"/></g><defs><clipPath id="clip0"><path fill="#fff" transform="translate(.118)" d="M0 0h24.706v23.882H0z"/></clipPath></defs></svg>